<svg width="49" height="49" viewBox="0 0 49 49" fill="none" xmlns="http://www.w3.org/2000/svg">
<rect y="0.851562" width="48.0894" height="48" rx="8" fill="#384855"/>
<path d="M36.0894 24.8963C36.0894 18.2434 30.6975 12.8516 24.0447 12.8516C17.3919 12.8516 12 18.2434 12 24.8963C12 30.5422 15.891 35.2848 21.137 36.5881V28.5755H18.6528V24.8963H21.137V23.3107C21.137 19.2127 22.9908 17.3119 27.0182 17.3119C27.7804 17.3119 29.0978 17.4624 29.6389 17.613V20.9441C29.3566 20.9159 28.8626 20.897 28.2462 20.897C26.2701 20.897 25.5079 21.6451 25.5079 23.5883V24.8963H29.4413L28.7638 28.5755H25.5032V36.8516C31.4691 36.1317 36.0894 31.0551 36.0894 24.8963Z" fill="#97CDEF"/>
</svg>
