<svg width="49" height="49" viewBox="0 0 49 49" fill="none" xmlns="http://www.w3.org/2000/svg">
<rect x="0.0898438" y="0.851562" width="48" height="48" rx="8" fill="#384855"/>
<path d="M24.0925 18.6983C20.6873 18.6983 17.9406 21.4456 17.9406 24.8516C17.9406 28.2576 20.6873 31.0049 24.0925 31.0049C27.4978 31.0049 30.2444 28.2576 30.2444 24.8516C30.2444 21.4456 27.4978 18.6983 24.0925 18.6983ZM24.0925 28.852C21.892 28.852 20.093 27.058 20.093 24.8516C20.093 22.6452 21.8866 20.8511 24.0925 20.8511C26.2984 20.8511 28.0921 22.6452 28.0921 24.8516C28.0921 27.058 26.2931 28.852 24.0925 28.852ZM31.931 18.4466C31.931 19.2445 31.2885 19.8818 30.4961 19.8818C29.6983 19.8818 29.0612 19.2392 29.0612 18.4466C29.0612 17.654 29.7037 17.0113 30.4961 17.0113C31.2885 17.0113 31.931 17.654 31.931 18.4466ZM36.0055 19.9032C35.9145 17.9806 35.4755 16.2776 34.0673 14.8745C32.6645 13.4714 30.9619 13.0323 29.0398 12.9359C27.0587 12.8234 21.121 12.8234 19.1399 12.9359C17.2231 13.027 15.5205 13.4661 14.1124 14.8692C12.7042 16.2723 12.2705 17.9753 12.1742 19.8979C12.0617 21.8793 12.0617 27.8184 12.1742 29.7999C12.2652 31.7225 12.7042 33.4255 14.1124 34.8286C15.5205 36.2317 17.2178 36.6708 19.1399 36.7672C21.121 36.8797 27.0587 36.8797 29.0398 36.7672C30.9619 36.6762 32.6645 36.237 34.0673 34.8286C35.4701 33.4255 35.9091 31.7225 36.0055 29.7999C36.118 27.8184 36.118 21.8847 36.0055 19.9032ZM33.4462 31.926C33.0286 32.9756 32.2201 33.7843 31.1654 34.2074C29.5859 34.8339 25.838 34.6893 24.0925 34.6893C22.3471 34.6893 18.5938 34.8286 17.0197 34.2074C15.9703 33.7896 15.1618 32.981 14.7388 31.926C14.1124 30.3462 14.2569 26.5974 14.2569 24.8516C14.2569 23.1057 14.1177 19.3516 14.7388 17.7771C15.1564 16.7275 15.9649 15.9188 17.0197 15.4958C18.5992 14.8692 22.3471 15.0138 24.0925 15.0138C25.838 15.0138 29.5912 14.8745 31.1654 15.4958C32.2148 15.9135 33.0233 16.7221 33.4462 17.7771C34.0727 19.357 33.9281 23.1057 33.9281 24.8516C33.9281 26.5974 34.0727 30.3515 33.4462 31.926Z" fill="#97CDEF"/>
</svg>
