<svg width="25" height="24" viewBox="0 0 25 24" fill="none" xmlns="http://www.w3.org/2000/svg">
<mask id="mask0_3626_14471" style="mask-type:alpha" maskUnits="userSpaceOnUse" x="0" y="0" width="25" height="25">
<rect x="0.855469" y="0.00976562" width="24" height="24" fill="#D9D9D9"/>
</mask>
<g mask="url(#mask0_3626_14471)">
<path d="M11.8555 17.0098H13.8555V11.0098H11.8555V17.0098ZM12.8555 9.00977C13.1388 9.00977 13.3763 8.91393 13.568 8.72227C13.7596 8.5306 13.8555 8.2931 13.8555 8.00977C13.8555 7.72643 13.7596 7.48893 13.568 7.29727C13.3763 7.1056 13.1388 7.00977 12.8555 7.00977C12.5721 7.00977 12.3346 7.1056 12.143 7.29727C11.9513 7.48893 11.8555 7.72643 11.8555 8.00977C11.8555 8.2931 11.9513 8.5306 12.143 8.72227C12.3346 8.91393 12.5721 9.00977 12.8555 9.00977ZM12.8555 22.0098C11.4721 22.0098 10.1721 21.7473 8.95547 21.2223C7.7388 20.6973 6.68047 19.9848 5.78047 19.0848C4.88047 18.1848 4.16797 17.1264 3.64297 15.9098C3.11797 14.6931 2.85547 13.3931 2.85547 12.0098C2.85547 10.6264 3.11797 9.32643 3.64297 8.10977C4.16797 6.8931 4.88047 5.83477 5.78047 4.93477C6.68047 4.03477 7.7388 3.32227 8.95547 2.79727C10.1721 2.27227 11.4721 2.00977 12.8555 2.00977C14.2388 2.00977 15.5388 2.27227 16.7555 2.79727C17.9721 3.32227 19.0305 4.03477 19.9305 4.93477C20.8305 5.83477 21.543 6.8931 22.068 8.10977C22.593 9.32643 22.8555 10.6264 22.8555 12.0098C22.8555 13.3931 22.593 14.6931 22.068 15.9098C21.543 17.1264 20.8305 18.1848 19.9305 19.0848C19.0305 19.9848 17.9721 20.6973 16.7555 21.2223C15.5388 21.7473 14.2388 22.0098 12.8555 22.0098Z" fill="#AEAAAE"/>
</g>
</svg>
