<svg width="1076" height="63" viewBox="0 0 1076 63" fill="none" xmlns="http://www.w3.org/2000/svg">
<path d="M238.221 17.576C232.431 18.3012 227.576 22.4806 226.027 28.0859C224.884 32.2407 225.622 36.6782 228.031 40.1815C230.489 43.7463 234.288 45.9835 238.639 46.426C239.487 46.5121 241.282 46.4752 242.13 46.34C245.093 45.8852 247.846 44.5453 250.022 42.4679C254.164 38.5344 255.59 32.4128 253.636 27.0411C253.292 26.0823 252.677 24.8899 252.099 24.0171C249.678 20.3663 245.83 18.0185 241.528 17.5637C240.79 17.4653 238.971 17.4899 238.221 17.576ZM241.22 19.6288C243.236 19.8378 245.252 20.5507 246.912 21.6693C247.576 22.1241 248.129 22.5421 248.129 22.6158C248.129 22.6404 247.268 23.5009 246.211 24.5211C245.154 25.5414 243.261 27.3852 242.019 28.6145C239.327 31.245 230.92 39.4194 230.575 39.7513L230.329 39.9849L230.207 39.8496C229.85 39.4317 229.1 38.2271 228.756 37.5264C227.539 35.0065 227.207 32.339 227.76 29.561C228.621 25.2587 231.878 21.5833 236.07 20.2065C237.705 19.6657 239.561 19.4567 241.22 19.6288ZM250.378 25.1235C252.91 28.848 253.193 33.7404 251.116 37.7968C249.186 41.5583 245.412 44.1028 241.196 44.5207C238 44.828 234.742 43.8692 232.223 41.8533C231.977 41.6689 231.78 41.4845 231.768 41.4722C231.768 41.4599 232.247 40.956 232.849 40.3782L233.931 39.3088L233.943 40.9068L233.956 42.5048H236.488H239.02V43.1932V43.8815H240.004H240.987V43.1932C240.987 42.431 240.987 42.4433 241.405 42.4433C241.528 42.4433 241.884 42.3942 242.192 42.3327C244.072 41.9516 245.486 41.0543 246.285 39.7267C246.826 38.8417 247.035 38.0673 247.084 36.8134C247.121 35.8424 247.059 35.3261 246.826 34.6008C246.322 33.0028 245.129 31.4786 243.851 30.8271L243.581 30.6919L241.761 32.462C240.753 33.4331 239.733 34.441 239.463 34.6869L238.983 35.1417V37.1822V39.235L238.455 39.1982C238.172 39.1859 237.078 39.1613 236.021 39.1613H234.091L235.123 38.141C236.058 37.2191 238.787 34.5517 245.007 28.5161C246.199 27.3607 247.711 25.8856 248.362 25.2341L249.567 24.0417L249.739 24.2384C249.837 24.349 250.12 24.7424 250.378 25.1235ZM241.995 33.6666C243.212 33.9862 243.912 34.7852 244.023 36.0144C244.171 37.6985 243.126 38.9154 241.442 39.0383L240.987 39.0752V36.2972V33.5191L241.331 33.556C241.515 33.556 241.823 33.6051 241.995 33.6666Z" fill="#97CDEF"/>
<path d="M240.405 21.258L240.391 21.9768L239.821 21.9904C237.719 22.0447 235.956 22.8178 234.965 24.1606C234.07 25.3543 233.69 26.6835 233.69 28.6232C233.69 30.3322 234.002 31.5123 234.735 32.6245C235.277 33.4384 236.417 34.3471 237.353 34.7134L237.678 34.8354L240.12 32.4618L242.561 30.0881L242.588 27.8365L242.615 25.5984L244.854 25.5848L247.092 25.5713V23.7808V22.004H244.84H242.588V21.2715V20.5391H241.503H240.432L240.405 21.258ZM240.364 28.6367V31.7157L239.998 31.6886C238.763 31.5937 237.787 31.024 237.353 30.1423C236.824 29.0572 236.932 27.5923 237.624 26.7107C238.044 26.1817 238.953 25.734 239.835 25.6255C240.065 25.5984 240.282 25.5713 240.31 25.5713C240.337 25.5713 240.364 26.9412 240.364 28.6367Z" fill="#97CDEF"/>
<path d="M277.088 31.936H273.52V36H271.04V25.216H277.616V27.184H273.52V29.968H277.088V31.936ZM286.606 31.904C286.606 33.1307 286.254 34.144 285.55 34.944C284.856 35.7333 283.886 36.128 282.638 36.128C281.368 36.128 280.387 35.7493 279.694 34.992C279 34.224 278.654 33.2427 278.654 32.048C278.654 30.8 279.016 29.776 279.742 28.976C280.467 28.1653 281.432 27.76 282.638 27.76C283.896 27.76 284.872 28.1493 285.566 28.928C286.259 29.7067 286.606 30.6987 286.606 31.904ZM281.47 30.256C281.214 30.6933 281.086 31.2587 281.086 31.952C281.086 32.6453 281.214 33.216 281.47 33.664C281.736 34.1013 282.131 34.32 282.654 34.32C283.166 34.32 283.544 34.1067 283.79 33.68C284.046 33.2427 284.174 32.6773 284.174 31.984C284.174 30.3947 283.656 29.6 282.622 29.6C282.11 29.6 281.726 29.8187 281.47 30.256ZM290.452 36H288.116L288.132 27.888H290.452V29.392C290.601 28.9227 290.847 28.5493 291.188 28.272C291.54 27.984 291.945 27.84 292.404 27.84C292.66 27.84 292.863 27.8613 293.012 27.904V30.112C292.756 29.9947 292.463 29.936 292.132 29.936C291.631 29.936 291.225 30.1227 290.916 30.496C290.607 30.8587 290.452 31.344 290.452 31.952V36ZM302.47 29.6H300.95V36H298.63V29.6H297.574V27.888H298.63V27.584C298.63 26.6027 298.902 25.84 299.446 25.296C300 24.752 300.763 24.48 301.734 24.48C302.235 24.48 302.64 24.5333 302.95 24.64V26.528C302.651 26.4107 302.374 26.352 302.118 26.352C301.723 26.352 301.43 26.4427 301.238 26.624C301.046 26.8053 300.95 27.1253 300.95 27.584V27.888H302.47V29.6ZM305.905 36H303.569L303.585 27.888H305.905V29.392C306.054 28.9227 306.3 28.5493 306.641 28.272C306.993 27.984 307.398 27.84 307.857 27.84C308.113 27.84 308.316 27.8613 308.465 27.904V30.112C308.209 29.9947 307.916 29.936 307.585 29.936C307.084 29.936 306.678 30.1227 306.369 30.496C306.06 30.8587 305.905 31.344 305.905 31.952V36ZM315.875 35.536C315.32 35.8987 314.472 36.08 313.331 36.08C311.998 36.08 310.958 35.696 310.211 34.928C309.475 34.1493 309.107 33.152 309.107 31.936C309.107 30.6453 309.464 29.6373 310.179 28.912C310.904 28.176 311.795 27.808 312.851 27.808C313.939 27.808 314.798 28.128 315.427 28.768C316.056 29.3973 316.371 30.3413 316.371 31.6C316.371 31.8453 316.328 32.2667 316.243 32.864H311.475C311.635 33.312 311.912 33.6587 312.307 33.904C312.702 34.1493 313.176 34.272 313.731 34.272C314.552 34.272 315.267 34.0427 315.875 33.584V35.536ZM312.947 29.584C312.574 29.584 312.243 29.7227 311.955 30C311.667 30.2667 311.475 30.6667 311.379 31.2H314.195V31.008C314.12 30.0587 313.704 29.584 312.947 29.584ZM324.406 35.536C323.851 35.8987 323.003 36.08 321.862 36.08C320.529 36.08 319.489 35.696 318.742 34.928C318.006 34.1493 317.638 33.152 317.638 31.936C317.638 30.6453 317.995 29.6373 318.71 28.912C319.435 28.176 320.326 27.808 321.382 27.808C322.47 27.808 323.329 28.128 323.958 28.768C324.587 29.3973 324.902 30.3413 324.902 31.6C324.902 31.8453 324.859 32.2667 324.774 32.864H320.006C320.166 33.312 320.443 33.6587 320.838 33.904C321.233 34.1493 321.707 34.272 322.262 34.272C323.083 34.272 323.798 34.0427 324.406 33.584V35.536ZM321.478 29.584C321.105 29.584 320.774 29.7227 320.486 30C320.198 30.2667 320.006 30.6667 319.91 31.2H322.726V31.008C322.651 30.0587 322.235 29.584 321.478 29.584Z" fill="#C6E4F6"/>
<path d="M465.042 43.5336L454.075 32.5086C453.161 32.7225 452.31 33.0433 451.523 33.4711C450.735 33.8989 450.031 34.4336 449.408 35.0753L446.958 32.5669C447.581 31.9447 448.251 31.4003 448.971 30.9336C449.69 30.4669 450.458 30.0586 451.275 29.7086L448.65 27.0836C447.853 27.4919 447.109 27.944 446.419 28.4398C445.728 28.9357 445.072 29.4947 444.45 30.1169L442 27.6086C442.622 26.9864 443.269 26.4273 443.94 25.9315C444.61 25.4357 445.325 24.9641 446.083 24.5169L443.633 22.0669L445.267 20.4336L466.733 41.9003L465.042 43.5336ZM456 41.6669C455.183 41.6669 454.493 41.3801 453.929 40.8065C453.365 40.2329 453.083 39.5475 453.083 38.7503C453.083 37.9336 453.365 37.2433 453.929 36.6794C454.493 36.1155 455.183 35.8336 456 35.8336C456.817 35.8336 457.507 36.1155 458.071 36.6794C458.635 37.2433 458.917 37.9336 458.917 38.7503C458.917 39.5475 458.635 40.2329 458.071 40.8065C457.507 41.3801 456.817 41.6669 456 41.6669ZM462.883 34.7253L456.992 28.8336C458.567 28.9891 460.04 29.3878 461.41 30.0294C462.781 30.6711 463.992 31.5169 465.042 32.5669L462.883 34.7253ZM467.55 30.1169C466.053 28.6197 464.317 27.4482 462.344 26.6023C460.37 25.7565 458.256 25.3336 456 25.3336C455.592 25.3336 455.198 25.3482 454.819 25.3773C454.44 25.4065 454.056 25.4503 453.667 25.5086L450.692 22.5336C451.547 22.3003 452.417 22.1253 453.302 22.0086C454.187 21.8919 455.086 21.8336 456 21.8336C458.761 21.8336 461.337 22.3489 463.729 23.3794C466.121 24.41 468.211 25.8197 470 27.6086L467.55 30.1169Z" fill="#97CDEF"/>
<path d="M497.136 30.576C497.136 32.2293 496.656 33.568 495.696 34.592C494.747 35.6053 493.477 36.112 491.888 36.112C490.288 36.112 489.013 35.6053 488.064 34.592C487.115 33.5787 486.64 32.24 486.64 30.576C486.64 28.9227 487.115 27.5893 488.064 26.576C489.024 25.552 490.299 25.04 491.888 25.04C493.488 25.04 494.763 25.5467 495.712 26.56C496.661 27.5733 497.136 28.912 497.136 30.576ZM489.984 28.176C489.515 28.7627 489.28 29.5627 489.28 30.576C489.28 31.5893 489.515 32.3947 489.984 32.992C490.453 33.5787 491.088 33.872 491.888 33.872C492.688 33.872 493.323 33.5787 493.792 32.992C494.261 32.3947 494.496 31.5893 494.496 30.576C494.496 29.5627 494.261 28.7627 493.792 28.176C493.323 27.5787 492.688 27.28 491.888 27.28C491.088 27.28 490.453 27.5787 489.984 28.176ZM503.157 29.6H501.637V36H499.317V29.6H498.261V27.888H499.317V27.584C499.317 26.6027 499.589 25.84 500.133 25.296C500.688 24.752 501.451 24.48 502.421 24.48C502.923 24.48 503.328 24.5333 503.637 24.64V26.528C503.339 26.4107 503.061 26.352 502.805 26.352C502.411 26.352 502.117 26.4427 501.925 26.624C501.733 26.8053 501.637 27.1253 501.637 27.584V27.888H503.157V29.6ZM508.689 29.6H507.169V36H504.849V29.6H503.793V27.888H504.849V27.584C504.849 26.6027 505.121 25.84 505.664 25.296C506.219 24.752 506.982 24.48 507.953 24.48C508.454 24.48 508.859 24.5333 509.169 24.64V26.528C508.87 26.4107 508.593 26.352 508.337 26.352C507.942 26.352 507.649 26.4427 507.457 26.624C507.265 26.8053 507.169 27.1253 507.169 27.584V27.888H508.689V29.6ZM512.22 36H509.884V24.688H512.22V36ZM516.642 36H514.306V27.888H516.642V36ZM516.434 24.576C516.7 24.8427 516.834 25.1627 516.834 25.536C516.834 25.9093 516.7 26.2293 516.434 26.496C516.167 26.7627 515.847 26.896 515.474 26.896C515.1 26.896 514.78 26.7627 514.514 26.496C514.247 26.2293 514.114 25.9093 514.114 25.536C514.114 25.1627 514.247 24.8427 514.514 24.576C514.78 24.3093 515.1 24.176 515.474 24.176C515.847 24.176 516.167 24.3093 516.434 24.576ZM526.088 36H523.752V31.168C523.752 30.688 523.64 30.3253 523.416 30.08C523.192 29.824 522.877 29.696 522.472 29.696C522.045 29.696 521.688 29.8667 521.4 30.208C521.122 30.5387 520.984 31.04 520.984 31.712V36H518.648V27.888H520.984V29.264C521.186 28.816 521.496 28.464 521.911 28.208C522.338 27.9413 522.845 27.808 523.432 27.808C524.264 27.808 524.914 28.0587 525.384 28.56C525.853 29.0507 526.088 29.776 526.088 30.736V36ZM534.297 35.536C533.742 35.8987 532.894 36.08 531.753 36.08C530.419 36.08 529.379 35.696 528.633 34.928C527.897 34.1493 527.529 33.152 527.529 31.936C527.529 30.6453 527.886 29.6373 528.601 28.912C529.326 28.176 530.217 27.808 531.273 27.808C532.361 27.808 533.219 28.128 533.849 28.768C534.478 29.3973 534.793 30.3413 534.793 31.6C534.793 31.8453 534.75 32.2667 534.665 32.864H529.897C530.057 33.312 530.334 33.6587 530.729 33.904C531.123 34.1493 531.598 34.272 532.153 34.272C532.974 34.272 533.689 34.0427 534.297 33.584V35.536ZM531.369 29.584C530.995 29.584 530.665 29.7227 530.377 30C530.089 30.2667 529.897 30.6667 529.801 31.2H532.617V31.008C532.542 30.0587 532.126 29.584 531.369 29.584ZM552.364 36H550.028V31.184C550.028 30.7253 549.937 30.3627 549.756 30.096C549.575 29.8293 549.313 29.696 548.972 29.696C548.609 29.696 548.284 29.8453 547.996 30.144C547.719 30.432 547.58 30.9547 547.58 31.712V36H545.244V31.184C545.244 30.7253 545.153 30.3627 544.972 30.096C544.791 29.8293 544.529 29.696 544.188 29.696C543.825 29.696 543.5 29.8453 543.212 30.144C542.935 30.432 542.796 30.9547 542.796 31.712V36H540.46V27.888H542.796V29.152C543.244 28.256 544.007 27.808 545.084 27.808C546.225 27.808 546.983 28.32 547.356 29.344C547.537 28.864 547.841 28.4907 548.268 28.224C548.695 27.9467 549.196 27.808 549.772 27.808C550.572 27.808 551.201 28.064 551.66 28.576C552.129 29.0773 552.364 29.8187 552.364 30.8V36ZM561.762 31.904C561.762 33.1307 561.41 34.144 560.706 34.944C560.013 35.7333 559.042 36.128 557.794 36.128C556.525 36.128 555.543 35.7493 554.85 34.992C554.157 34.224 553.81 33.2427 553.81 32.048C553.81 30.8 554.173 29.776 554.898 28.976C555.623 28.1653 556.589 27.76 557.794 27.76C559.053 27.76 560.029 28.1493 560.722 28.928C561.415 29.7067 561.762 30.6987 561.762 31.904ZM556.626 30.256C556.37 30.6933 556.242 31.2587 556.242 31.952C556.242 32.6453 556.37 33.216 556.626 33.664C556.893 34.1013 557.287 34.32 557.81 34.32C558.322 34.32 558.701 34.1067 558.946 33.68C559.202 33.2427 559.33 32.6773 559.33 31.984C559.33 30.3947 558.813 29.6 557.778 29.6C557.266 29.6 556.882 29.8187 556.626 30.256ZM565.256 31.968C565.256 32.6187 565.427 33.1467 565.768 33.552C566.109 33.9467 566.525 34.144 567.016 34.144C567.549 34.144 567.981 33.936 568.312 33.52C568.643 33.104 568.808 32.5493 568.808 31.856C568.808 31.184 568.627 30.6613 568.264 30.288C567.912 29.9147 567.491 29.728 567 29.728C566.509 29.728 566.093 29.9253 565.752 30.32C565.421 30.7147 565.256 31.264 565.256 31.968ZM571.144 36H568.808V34.736C568.264 35.6427 567.453 36.096 566.376 36.096C565.32 36.096 564.472 35.6853 563.832 34.864C563.203 34.0427 562.888 33.0613 562.888 31.92C562.888 30.64 563.219 29.632 563.88 28.896C564.541 28.16 565.379 27.792 566.392 27.792C567.448 27.792 568.253 28.24 568.808 29.136V24.688H571.144V36ZM579.437 35.536C578.883 35.8987 578.035 36.08 576.893 36.08C575.56 36.08 574.52 35.696 573.773 34.928C573.037 34.1493 572.669 33.152 572.669 31.936C572.669 30.6453 573.027 29.6373 573.741 28.912C574.467 28.176 575.357 27.808 576.413 27.808C577.501 27.808 578.36 28.128 578.989 28.768C579.619 29.3973 579.933 30.3413 579.933 31.6C579.933 31.8453 579.891 32.2667 579.805 32.864H575.037C575.197 33.312 575.475 33.6587 575.869 33.904C576.264 34.1493 576.739 34.272 577.293 34.272C578.115 34.272 578.829 34.0427 579.437 33.584V35.536ZM576.509 29.584C576.136 29.584 575.805 29.7227 575.517 30C575.229 30.2667 575.037 30.6667 574.941 31.2H577.757V31.008C577.683 30.0587 577.267 29.584 576.509 29.584Z" fill="#C6E4F6"/>
<mask id="mask0_3629_14418" style="mask-type:alpha" maskUnits="userSpaceOnUse" x="695" y="16" width="32" height="32">
<rect x="695" y="16" width="32" height="31.9695" fill="#D9D9D9"/>
</mask>
<g mask="url(#mask0_3629_14418)">
<path d="M711.001 34.9151C710.001 34.9151 709.151 34.5655 708.451 33.8661C707.751 33.1668 707.401 32.3176 707.401 31.3186C707.401 30.3195 707.751 29.4703 708.451 28.771C709.151 28.0717 710.001 27.722 711.001 27.722C712.001 27.722 712.851 28.0717 713.551 28.771C714.251 29.4703 714.601 30.3195 714.601 31.3186C714.601 32.3176 714.251 33.1668 713.551 33.8661C712.851 34.5655 712.001 34.9151 711.001 34.9151ZM711.001 41.309C707.756 41.309 704.801 40.4043 702.134 38.595C699.467 36.7856 697.534 34.3601 696.334 31.3186C697.534 28.277 699.467 25.8516 702.134 24.0422C704.801 22.2328 707.756 21.3281 711.001 21.3281C714.134 21.3281 716.995 22.1718 719.584 23.859C722.173 25.5463 724.112 27.8108 725.401 30.6525H720.334C719.712 30.6525 719.123 30.7303 718.567 30.8857C718.012 31.0411 717.49 31.2631 717.001 31.5517V31.3186C717.001 29.6535 716.417 28.2382 715.251 27.0726C714.084 25.9071 712.667 25.3243 711.001 25.3243C709.334 25.3243 707.917 25.9071 706.751 27.0726C705.584 28.2382 705.001 29.6535 705.001 31.3186C705.001 32.9837 705.584 34.399 706.751 35.5645C707.917 36.7301 709.334 37.3129 711.001 37.3129C711.49 37.3129 711.962 37.2573 712.417 37.1463C712.873 37.0353 713.301 36.8799 713.701 36.6801C713.678 36.7911 713.667 36.8966 713.667 36.9965V41.0759C713.223 41.1425 712.778 41.198 712.334 41.2424C711.89 41.2868 711.445 41.309 711.001 41.309ZM717.667 43.9732C717.29 43.9732 716.973 43.8455 716.717 43.5902C716.462 43.3349 716.334 43.0185 716.334 42.6411V38.6449C716.334 38.2675 716.462 37.9511 716.717 37.6958C716.973 37.4405 717.29 37.3129 717.667 37.3129V35.9808C717.667 35.2482 717.928 34.621 718.451 34.0993C718.973 33.5775 719.601 33.3167 720.334 33.3167C721.067 33.3167 721.695 33.5775 722.217 34.0993C722.74 34.621 723.001 35.2482 723.001 35.9808V37.3129C723.378 37.3129 723.695 37.4405 723.951 37.6958C724.206 37.9511 724.334 38.2675 724.334 38.6449V42.6411C724.334 43.0185 724.206 43.3349 723.951 43.5902C723.695 43.8455 723.378 43.9732 723.001 43.9732H717.667ZM719.001 37.3129H721.667V35.9808C721.667 35.6034 721.54 35.287 721.284 35.0317C721.028 34.7764 720.712 34.6487 720.334 34.6487C719.956 34.6487 719.64 34.7764 719.384 35.0317C719.128 35.287 719.001 35.6034 719.001 35.9808V37.3129Z" fill="#97CDEF"/>
</g>
<path d="M748.744 32.864C748.744 33.8347 748.387 34.624 747.672 35.232C746.957 35.8293 746.008 36.128 744.824 36.128C743.555 36.128 742.52 35.904 741.72 35.456V32.976C742.691 33.68 743.725 34.032 744.824 34.032C745.197 34.032 745.507 33.936 745.752 33.744C745.997 33.5413 746.12 33.28 746.12 32.96C746.12 32.8533 746.104 32.752 746.072 32.656C746.04 32.56 745.981 32.4693 745.896 32.384C745.811 32.2987 745.725 32.2293 745.64 32.176C745.565 32.112 745.448 32.0427 745.288 31.968C745.139 31.8827 745.011 31.8133 744.904 31.76C744.797 31.7067 744.637 31.632 744.424 31.536C744.221 31.44 744.056 31.3653 743.928 31.312C743.235 30.992 742.675 30.5973 742.248 30.128C741.832 29.6587 741.624 29.0347 741.624 28.256C741.624 27.328 741.965 26.5813 742.648 26.016C743.331 25.44 744.275 25.152 745.48 25.152C746.557 25.152 747.485 25.3333 748.264 25.696V28C747.4 27.4987 746.504 27.248 745.576 27.248C745.16 27.248 744.84 27.3333 744.616 27.504C744.403 27.6747 744.296 27.8933 744.296 28.16C744.296 28.4267 744.429 28.6667 744.696 28.88C744.963 29.0827 745.363 29.3013 745.896 29.536C746.227 29.6853 746.499 29.8187 746.712 29.936C746.936 30.0427 747.187 30.1973 747.464 30.4C747.752 30.592 747.976 30.8 748.136 31.024C748.307 31.2373 748.451 31.504 748.568 31.824C748.685 32.144 748.744 32.4907 748.744 32.864ZM757.619 36H755.283V31.2C755.283 30.7307 755.165 30.3627 754.931 30.096C754.696 29.8293 754.392 29.696 754.019 29.696C753.859 29.696 753.704 29.7227 753.555 29.776C753.416 29.8187 753.261 29.904 753.091 30.032C752.92 30.1493 752.781 30.3573 752.675 30.656C752.568 30.944 752.515 31.296 752.515 31.712V36H750.179V24.688H752.515V29.264C752.931 28.2933 753.741 27.808 754.947 27.808C755.736 27.808 756.376 28.0587 756.867 28.56C757.368 29.0613 757.619 29.8187 757.619 30.832V36ZM762.436 34.4C762.767 34.4 763.023 34.2987 763.204 34.096C763.385 33.8933 763.476 33.616 763.476 33.264V32.672H762.724C762.329 32.672 762.025 32.7573 761.812 32.928C761.599 33.0987 761.492 33.3173 761.492 33.584C761.492 34.128 761.807 34.4 762.436 34.4ZM763.588 35.008C763.247 35.7013 762.575 36.048 761.572 36.048C760.783 36.048 760.164 35.824 759.716 35.376C759.279 34.928 759.06 34.368 759.06 33.696C759.06 32.9173 759.343 32.3147 759.908 31.888C760.484 31.4507 761.332 31.232 762.452 31.232H763.476V30.672C763.476 29.9893 763.023 29.648 762.116 29.648C761.241 29.648 760.431 29.8933 759.684 30.384V28.288C760.324 27.9253 761.247 27.744 762.452 27.744C763.604 27.744 764.463 27.9947 765.028 28.496C765.593 28.9867 765.876 29.7547 765.876 30.8V36H763.588V35.008ZM770.03 36H767.694L767.71 27.888H770.03V29.392C770.179 28.9227 770.425 28.5493 770.766 28.272C771.118 27.984 771.523 27.84 771.982 27.84C772.238 27.84 772.441 27.8613 772.59 27.904V30.112C772.334 29.9947 772.041 29.936 771.71 29.936C771.209 29.936 770.803 30.1227 770.494 30.496C770.185 30.8587 770.03 31.344 770.03 31.952V36ZM780 35.536C779.445 35.8987 778.597 36.08 777.456 36.08C776.123 36.08 775.083 35.696 774.336 34.928C773.6 34.1493 773.232 33.152 773.232 31.936C773.232 30.6453 773.589 29.6373 774.304 28.912C775.029 28.176 775.92 27.808 776.976 27.808C778.064 27.808 778.923 28.128 779.552 28.768C780.181 29.3973 780.496 30.3413 780.496 31.6C780.496 31.8453 780.453 32.2667 780.368 32.864H775.6C775.76 33.312 776.037 33.6587 776.432 33.904C776.827 34.1493 777.301 34.272 777.856 34.272C778.677 34.272 779.392 34.0427 780 33.584V35.536ZM777.072 29.584C776.699 29.584 776.368 29.7227 776.08 30C775.792 30.2667 775.6 30.6667 775.504 31.2H778.32V31.008C778.245 30.0587 777.829 29.584 777.072 29.584ZM784.131 31.968C784.131 32.6187 784.302 33.1467 784.643 33.552C784.984 33.9467 785.4 34.144 785.891 34.144C786.424 34.144 786.856 33.936 787.187 33.52C787.518 33.104 787.683 32.5493 787.683 31.856C787.683 31.184 787.502 30.6613 787.139 30.288C786.787 29.9147 786.366 29.728 785.875 29.728C785.384 29.728 784.968 29.9253 784.627 30.32C784.296 30.7147 784.131 31.264 784.131 31.968ZM790.019 36H787.683V34.736C787.139 35.6427 786.328 36.096 785.251 36.096C784.195 36.096 783.347 35.6853 782.707 34.864C782.078 34.0427 781.763 33.0613 781.763 31.92C781.763 30.64 782.094 29.632 782.755 28.896C783.416 28.16 784.254 27.792 785.267 27.792C786.323 27.792 787.128 28.24 787.683 29.136V24.688H790.019V36ZM803.496 31.904C803.496 33.1307 803.144 34.144 802.44 34.944C801.747 35.7333 800.776 36.128 799.528 36.128C798.259 36.128 797.278 35.7493 796.584 34.992C795.891 34.224 795.544 33.2427 795.544 32.048C795.544 30.8 795.907 29.776 796.632 28.976C797.358 28.1653 798.323 27.76 799.528 27.76C800.787 27.76 801.763 28.1493 802.456 28.928C803.15 29.7067 803.496 30.6987 803.496 31.904ZM798.36 30.256C798.104 30.6933 797.976 31.2587 797.976 31.952C797.976 32.6453 798.104 33.216 798.36 33.664C798.627 34.1013 799.022 34.32 799.544 34.32C800.056 34.32 800.435 34.1067 800.68 33.68C800.936 33.2427 801.064 32.6773 801.064 31.984C801.064 30.3947 800.547 29.6 799.512 29.6C799 29.6 798.616 29.8187 798.36 30.256ZM807.343 36H805.007L805.023 27.888H807.343V29.392C807.492 28.9227 807.737 28.5493 808.079 28.272C808.431 27.984 808.836 27.84 809.295 27.84C809.551 27.84 809.753 27.8613 809.903 27.904V30.112C809.647 29.9947 809.353 29.936 809.023 29.936C808.521 29.936 808.116 30.1227 807.807 30.496C807.497 30.8587 807.343 31.344 807.343 31.952V36ZM817.28 38.992H814.944V27.888H817.28V29.136C817.846 28.24 818.662 27.792 819.728 27.792C820.774 27.792 821.611 28.1653 822.24 28.912C822.88 29.648 823.2 30.6507 823.2 31.92C823.2 33.1253 822.891 34.1227 822.272 34.912C821.664 35.7013 820.816 36.096 819.728 36.096C818.63 36.096 817.814 35.664 817.28 34.8V38.992ZM817.28 31.856C817.28 32.5493 817.451 33.104 817.792 33.52C818.134 33.936 818.571 34.144 819.104 34.144C819.616 34.144 820.032 33.952 820.352 33.568C820.672 33.1733 820.832 32.64 820.832 31.968C820.832 31.232 820.667 30.6773 820.336 30.304C820.016 29.92 819.606 29.728 819.104 29.728C818.614 29.728 818.187 29.9147 817.824 30.288C817.462 30.6613 817.28 31.184 817.28 31.856ZM827.046 36H824.71L824.726 27.888H827.046V29.392C827.195 28.9227 827.44 28.5493 827.782 28.272C828.134 27.984 828.539 27.84 828.998 27.84C829.254 27.84 829.456 27.8613 829.606 27.904V30.112C829.35 29.9947 829.056 29.936 828.726 29.936C828.224 29.936 827.819 30.1227 827.51 30.496C827.2 30.8587 827.046 31.344 827.046 31.952V36ZM833.064 36H830.728V27.888H833.064V36ZM832.856 24.576C833.122 24.8427 833.256 25.1627 833.256 25.536C833.256 25.9093 833.122 26.2293 832.856 26.496C832.589 26.7627 832.269 26.896 831.896 26.896C831.522 26.896 831.202 26.7627 830.936 26.496C830.669 26.2293 830.536 25.9093 830.536 25.536C830.536 25.1627 830.669 24.8427 830.936 24.576C831.202 24.3093 831.522 24.176 831.896 24.176C832.269 24.176 832.589 24.3093 832.856 24.576ZM839.581 36H837.181L834.189 27.888H836.637L837.693 31.344C837.853 31.8773 837.992 32.384 838.109 32.864C838.227 33.3333 838.301 33.6747 838.333 33.888L838.397 34.192C838.493 33.4987 838.733 32.5493 839.117 31.344L840.205 27.888H842.605L839.581 36ZM846.624 34.4C846.954 34.4 847.21 34.2987 847.391 34.096C847.573 33.8933 847.664 33.616 847.664 33.264V32.672H846.911C846.517 32.672 846.213 32.7573 846 32.928C845.786 33.0987 845.68 33.3173 845.68 33.584C845.68 34.128 845.994 34.4 846.624 34.4ZM847.776 35.008C847.434 35.7013 846.762 36.048 845.76 36.048C844.97 36.048 844.352 35.824 843.904 35.376C843.466 34.928 843.248 34.368 843.248 33.696C843.248 32.9173 843.53 32.3147 844.096 31.888C844.672 31.4507 845.52 31.232 846.64 31.232H847.664V30.672C847.664 29.9893 847.21 29.648 846.304 29.648C845.429 29.648 844.618 29.8933 843.872 30.384V28.288C844.512 27.9253 845.434 27.744 846.64 27.744C847.792 27.744 848.65 27.9947 849.216 28.496C849.781 28.9867 850.064 29.7547 850.064 30.8V36H847.776V35.008ZM856.634 35.824C856.239 35.9947 855.706 36.08 855.034 36.08C853.188 36.08 852.266 35.1573 852.266 33.312V29.6H851.098V27.888H852.266V25.968H854.602V27.888H856.49V29.6H854.602V33.328C854.602 33.616 854.682 33.8347 854.842 33.984C855.012 34.1333 855.231 34.208 855.498 34.208C855.924 34.208 856.303 34.1013 856.634 33.888V35.824ZM864.437 35.536C863.883 35.8987 863.035 36.08 861.893 36.08C860.56 36.08 859.52 35.696 858.773 34.928C858.037 34.1493 857.669 33.152 857.669 31.936C857.669 30.6453 858.027 29.6373 858.741 28.912C859.467 28.176 860.357 27.808 861.413 27.808C862.501 27.808 863.36 28.128 863.989 28.768C864.619 29.3973 864.933 30.3413 864.933 31.6C864.933 31.8453 864.891 32.2667 864.805 32.864H860.037C860.197 33.312 860.475 33.6587 860.869 33.904C861.264 34.1493 861.739 34.272 862.293 34.272C863.115 34.272 863.829 34.0427 864.437 33.584V35.536ZM861.509 29.584C861.136 29.584 860.805 29.7227 860.517 30C860.229 30.2667 860.037 30.6667 859.941 31.2H862.757V31.008C862.683 30.0587 862.267 29.584 861.509 29.584Z" fill="#C6E4F6"/>
</svg>
